name Walk6.mot
datacolumns 19
datarows 15
range 1.97000000 2.04000000
endheader

                time	   L_ground_force_vx	   L_ground_force_vy	   L_ground_force_vz	   L_ground_force_px	   L_ground_force_py	   L_ground_force_pz	   R_ground_force_vx	   R_ground_force_vy	   R_ground_force_vz	   R_ground_force_px	   R_ground_force_py	   R_ground_force_pz	   L_ground_torque_x	   L_ground_torque_y	   L_ground_torque_z	   R_ground_torque_x	   R_ground_torque_y	   R_ground_torque_z	
          1.97000000	         -3.89683739	         85.84681311	         -2.39242353	         -0.05773773	          0.00000000	         -0.00950165	         -0.00000000	          0.00000000	          0.00000000	          0.00000000	          0.00000000	          0.00000000	          0.00000000	          0.14862827	          0.00000000	          0.00000000	          0.00000000	          0.00000000	
          1.97500000	         -8.22788031	        122.16556512	         -3.51024180	         -0.12292581	          0.00000000	         -0.01453838	         -0.00000000	          0.00000000	          0.00000000	          0.00000000	          0.00000000	          0.00000000	          0.00000000	          0.28454535	          0.00000000	          0.00000000	          0.00000000	          0.00000000	
          1.98000000	        -12.67765573	        160.40830399	         -4.85208464	         -0.18031365	          0.00000000	         -0.01920677	         -0.00000000	          0.00000000	          0.00000000	          0.00000000	          0.00000000	          0.00000000	          0.00000000	          0.41969427	          0.00000000	          0.00000000	          0.00000000	          0.00000000	
          1.98500000	        -17.27354193	        198.70691328	         -6.34487361	         -0.22798869	          0.00000000	         -0.02329568	         -0.00000000	          0.00000000	          0.00000000	          0.00000000	          0.00000000	          0.00000000	          0.00000000	          0.55071746	          0.00000000	          0.00000000	          0.00000000	          0.00000000	
          1.99000000	        -22.15586974	        235.49580929	         -7.82846137	         -0.26545898	          0.00000000	         -0.02672452	         -0.00000000	          0.00000000	          0.00000000	         -0.00000000	          0.00000000	         -0.00000000	          0.00000000	          0.67525408	          0.00000000	          0.00000000	          0.00000000	          0.00000000	
          1.99500000	        -27.46546709	        269.72263686	         -9.08269582	         -0.29318567	          0.00000000	         -0.02950533	         -0.00000000	          0.00000000	          0.00000000	         -0.00000000	          0.00000000	         -0.00000000	          0.00000000	          0.79019914	          0.00000000	          0.00000000	          0.00000000	          0.00000000	
          2.00000000	        -33.26990775	        300.90615443	         -9.88789741	         -0.31220916	          0.00000000	         -0.03170772	         -0.00000000	         -0.00000000	          0.00000000	         -0.00000000	          0.00000000	         -0.00000000	          0.00000000	          0.89086207	          0.00000000	          0.00000000	          0.00000000	          0.00000000	
          2.00500000	        -39.57339557	        329.13239504	        -10.07123904	         -0.32386277	          0.00000000	         -0.03342922	         -0.00000000	         -0.00000000	          0.00000000	         -0.00000000	          0.00000000	         -0.00000000	          0.00000000	          0.97094842	          0.00000000	          0.00000000	          0.00000000	          0.00000000	
          2.01000000	        -46.37986905	        354.94280318	         -9.52892972	         -0.32956828	          0.00000000	         -0.03477047	         -0.00000000	         -0.00000001	          0.00000000	         -0.00000000	          0.00000000	         -0.00000000	          0.00000000	          1.02403316	          0.00000000	          0.00000000	          0.00000000	          0.00000000	
          2.01500000	        -53.73846863	        379.13160264	         -8.23287469	         -0.33069838	          0.00000000	         -0.03581677	         -0.00000000	         -0.00000001	          0.00000000	         -0.00000000	          0.00000000	         -0.00000000	          0.00000000	          1.04613005	          0.00000000	          0.00000000	          0.00000000	          0.00000000	
          2.02000000	        -61.71862508	        402.51034667	         -6.23661732	         -0.32850196	          0.00000000	         -0.03663267	         -0.00000000	         -0.00000002	          0.00000000	         -0.00000000	          0.00000000	         -0.00000000	          0.00000000	          1.03747185	          0.00000000	          0.00000000	          0.00000000	          0.00000000	
          2.02500000	        -70.32859972	        425.73374302	         -3.68485816	         -0.32406077	          0.00000000	         -0.03726166	         -0.00000000	         -0.00000003	          0.00000000	         -0.00000000	          0.00000000	         -0.00000000	          0.00000000	          1.00475589	          0.00000000	          0.00000000	          0.00000000	          0.00000000	
          2.03000000	        -79.44096555	        449.21104510	         -0.78754088	         -0.31827176	          0.00000000	         -0.03773078	          0.00000000	         -0.00000004	          0.00000000	         -0.00000000	          0.00000000	         -0.00000000	          0.00000000	          0.96080136	          0.00000000	          0.00000000	         -0.00000000	          0.00000000	
          2.03500000	        -88.78719318	        473.09916944	          2.23609810	         -0.31185400	          0.00000000	         -0.03805932	          0.00000000	         -0.00000005	          0.00000000	         -0.00000000	          0.00000000	         -0.00000000	          0.00000000	          0.92169299	          0.00000000	          0.00000000	         -0.00000000	          0.00000000	
          2.04000000	        -98.01975720	        497.35843729	          5.20171741	         -0.30535751	          0.00000000	         -0.03826426	          0.00000000	         -0.00000006	          0.00000000	         -0.00000000	          0.00000000	         -0.00000000	          0.00000000	          0.90240860	          0.00000000	          0.00000000	         -0.00000000	          0.00000000	
